# xmcd
# 
# Track frame offsets:
#     150
#     17283
#     31150
#     51488
#     67755
#     86398
#     104058
#     119445
#     142246
#     163838
# 
# Disc length: 2500
# 
# Revision: 0
# Processed by: cddbd v1.5.2PL0 Copyright (c) Steve Scherf et al.
# Submitted via: BonkEnc v1.0.6
# 
DISCID=8409c20a
DTITLE=Van Morrison - It's Too Late To Stop Now - CD1
DYEAR=1974
DGENRE=Rock
TTITLE0=Ain't Nothin' You Can Do
TTITLE1=Warm Love
TTITLE2=Into The Mystic
TTITLE3=These Dreams of You
TTITLE4=I Believe To My Soul
TTITLE5=I've Been Working
TTITLE6=Help Me
TTITLE7=Wild Children
TTITLE8=Domino
TTITLE9=I Just Want To Make Love To You
EXTD=YEAR: 1974
EXTT0=
EXTT1=
EXTT2=
EXTT3=
EXTT4=
EXTT5=
EXTT6=
EXTT7=
EXTT8=
EXTT9=
PLAYORDER=
